<?xml version="1.0" encoding="UTF-8" standalone="no"?>
<!DOCTYPE svg PUBLIC "-//W3C//DTD SVG 1.1//EN"
 "http://www.w3.org/Graphics/SVG/1.1/DTD/svg11.dtd">
<!-- Generated by graphviz version 2.38.0 (20140413.2041)
 -->
<!-- Title: models_diagram Pages: 1 -->
<svg width="398pt" height="158pt"
 viewBox="0.00 0.00 397.90 158.00" xmlns="http://www.w3.org/2000/svg" xmlns:xlink="http://www.w3.org/1999/xlink">
<g id="graph0" class="graph" transform="scale(1 1) rotate(0) translate(4 154)">
<title>models_diagram</title>
<polygon fill="none" stroke="none" points="-4,4 -4,-154 393.896,-154 393.896,4 -4,4"/>
<!-- _diagram_info -->
<g id="node1" class="node"><title>_diagram_info</title>
<text text-anchor="start" x="8" y="-135.6" font-family="Times,serif" font-size="13.00">Models diagram</text>
<text text-anchor="start" x="8" y="-121.6" font-family="Times,serif" font-size="13.00">Date: Nov 05 2015 &#45; 11:11</text>
<text text-anchor="start" x="8" y="-107.6" font-family="Times,serif" font-size="13.00">Migration version: 20151103070829</text>
<text text-anchor="start" x="8" y="-93.6" font-family="Times,serif" font-size="13.00">Generated by RailRoady 1.4.1</text>
<text text-anchor="start" x="8" y="-79.6" font-family="Times,serif" font-size="13.00">http://railroady.prestonlee.com</text>
</g>
<!-- Project -->
<g id="node2" class="node"><title>Project</title>
<ellipse fill="none" stroke="black" cx="303" cy="-18" rx="35.9954" ry="18"/>
<text text-anchor="middle" x="303" y="-14.3" font-family="Times,serif" font-size="14.00">Project</text>
</g>
<!-- User -->
<g id="node3" class="node"><title>User</title>
<ellipse fill="none" stroke="black" cx="259" cy="-111" rx="27.0966" ry="18"/>
<text text-anchor="middle" x="259" y="-107.3" font-family="Times,serif" font-size="14.00">User</text>
</g>
<!-- User&#45;&gt;Project -->
<g id="edge1" class="edge"><title>User&#45;&gt;Project</title>
<path fill="none" stroke="#011940" d="M270.431,-86.3589C276.548,-73.7065 284.096,-58.0962 290.385,-45.09"/>
<ellipse fill="none" stroke="#011940" cx="268.608" cy="-90.1299" rx="4.00002" ry="4.00002"/>
<polygon fill="#011940" stroke="#011940" points="290.551,-44.7467 298.955,-37.7027 292.728,-40.2452 294.904,-35.7438 294.904,-35.7438 294.904,-35.7438 292.728,-40.2452 290.853,-33.7849 290.551,-44.7467 290.551,-44.7467"/>
</g>
<!-- Category -->
<g id="node4" class="node"><title>Category</title>
<ellipse fill="none" stroke="black" cx="347" cy="-111" rx="42.7926" ry="18"/>
<text text-anchor="middle" x="347" y="-107.3" font-family="Times,serif" font-size="14.00">Category</text>
</g>
<!-- Category&#45;&gt;Project -->
<g id="edge2" class="edge"><title>Category&#45;&gt;Project</title>
<path fill="none" stroke="#e0ad99" d="M335.359,-85.9252C329.242,-73.2742 321.741,-57.7594 315.501,-44.8543"/>
<ellipse fill="none" stroke="#e0ad99" cx="337.188" cy="-89.7081" rx="4.00002" ry="4.00002"/>
<polygon fill="#e0ad99" stroke="#e0ad99" points="315.372,-44.5878 315.07,-33.6261 313.196,-40.0864 311.019,-35.585 311.019,-35.585 311.019,-35.585 313.196,-40.0864 306.968,-37.5439 315.372,-44.5878 315.372,-44.5878"/>
</g>
</g>
</svg>
