<?xml version="1.0" encoding="UTF-8" standalone="no"?>
<!DOCTYPE svg PUBLIC "-//W3C//DTD SVG 1.1//EN"
 "http://www.w3.org/Graphics/SVG/1.1/DTD/svg11.dtd">
<!-- Generated by graphviz version 2.38.0 (20140413.2041)
 -->
<!-- Title: models_diagram Pages: 1 -->
<svg width="521pt" height="258pt"
 viewBox="0.00 0.00 520.50 258.00" xmlns="http://www.w3.org/2000/svg" xmlns:xlink="http://www.w3.org/1999/xlink">
<g id="graph0" class="graph" transform="scale(1 1) rotate(0) translate(4 254)">
<title>models_diagram</title>
<polygon fill="none" stroke="none" points="-4,4 -4,-254 516.5,-254 516.5,4 -4,4"/>
<!-- _diagram_info -->
<g id="node1" class="node"><title>_diagram_info</title>
<text text-anchor="start" x="8" y="-228.6" font-family="Times,serif" font-size="13.00">Models diagram</text>
<text text-anchor="start" x="8" y="-214.6" font-family="Times,serif" font-size="13.00">Date: Nov 05 2015 &#45; 11:11</text>
<text text-anchor="start" x="8" y="-200.6" font-family="Times,serif" font-size="13.00">Migration version: 20151103070829</text>
<text text-anchor="start" x="8" y="-186.6" font-family="Times,serif" font-size="13.00">Generated by RailRoady 1.4.1</text>
<text text-anchor="start" x="8" y="-172.6" font-family="Times,serif" font-size="13.00">http://railroady.prestonlee.com</text>
</g>
<!-- Project -->
<g id="node2" class="node"><title>Project</title>
<path fill="none" stroke="black" d="M318.5,-0.5C318.5,-0.5 425.5,-0.5 425.5,-0.5 431.5,-0.5 437.5,-6.5 437.5,-12.5 437.5,-12.5 437.5,-109.5 437.5,-109.5 437.5,-115.5 431.5,-121.5 425.5,-121.5 425.5,-121.5 318.5,-121.5 318.5,-121.5 312.5,-121.5 306.5,-115.5 306.5,-109.5 306.5,-109.5 306.5,-12.5 306.5,-12.5 306.5,-6.5 312.5,-0.5 318.5,-0.5"/>
<text text-anchor="middle" x="372" y="-106.3" font-family="Times,serif" font-size="14.00">Project</text>
<polyline fill="none" stroke="black" points="306.5,-98.5 437.5,-98.5 "/>
<text text-anchor="start" x="314.5" y="-83.3" font-family="Times,serif" font-size="14.00">id :INTEGER</text>
<text text-anchor="start" x="314.5" y="-68.3" font-family="Times,serif" font-size="14.00">title :varchar</text>
<text text-anchor="start" x="314.5" y="-53.3" font-family="Times,serif" font-size="14.00">user_id :integer</text>
<text text-anchor="start" x="314.5" y="-38.3" font-family="Times,serif" font-size="14.00">category_id :integer</text>
<text text-anchor="start" x="314.5" y="-23.3" font-family="Times,serif" font-size="14.00">created_at :datetime</text>
<text text-anchor="start" x="314.5" y="-8.3" font-family="Times,serif" font-size="14.00">updated_at :datetime</text>
</g>
<!-- User -->
<g id="node3" class="node"><title>User</title>
<path fill="none" stroke="black" d="M244.5,-158.5C244.5,-158.5 351.5,-158.5 351.5,-158.5 357.5,-158.5 363.5,-164.5 363.5,-170.5 363.5,-170.5 363.5,-237.5 363.5,-237.5 363.5,-243.5 357.5,-249.5 351.5,-249.5 351.5,-249.5 244.5,-249.5 244.5,-249.5 238.5,-249.5 232.5,-243.5 232.5,-237.5 232.5,-237.5 232.5,-170.5 232.5,-170.5 232.5,-164.5 238.5,-158.5 244.5,-158.5"/>
<text text-anchor="middle" x="298" y="-234.3" font-family="Times,serif" font-size="14.00">User</text>
<polyline fill="none" stroke="black" points="232.5,-226.5 363.5,-226.5 "/>
<text text-anchor="start" x="240.5" y="-211.3" font-family="Times,serif" font-size="14.00">id :INTEGER</text>
<text text-anchor="start" x="240.5" y="-196.3" font-family="Times,serif" font-size="14.00">name :varchar</text>
<text text-anchor="start" x="240.5" y="-181.3" font-family="Times,serif" font-size="14.00">created_at :datetime</text>
<text text-anchor="start" x="240.5" y="-166.3" font-family="Times,serif" font-size="14.00">updated_at :datetime</text>
</g>
<!-- User&#45;&gt;Project -->
<g id="edge1" class="edge"><title>User&#45;&gt;Project</title>
<path fill="none" stroke="#2e1f05" d="M325.22,-151.134C328.694,-144.515 332.293,-137.659 335.88,-130.824"/>
<ellipse fill="none" stroke="#2e1f05" cx="323.273" cy="-154.845" rx="4.00002" ry="4.00002"/>
<polygon fill="#2e1f05" stroke="#2e1f05" points="336.104,-130.396 344.736,-123.632 338.428,-125.969 340.751,-121.541 340.751,-121.541 340.751,-121.541 338.428,-125.969 336.767,-119.45 336.104,-130.396 336.104,-130.396"/>
</g>
<!-- Category -->
<g id="node4" class="node"><title>Category</title>
<path fill="none" stroke="black" d="M393.5,-158.5C393.5,-158.5 500.5,-158.5 500.5,-158.5 506.5,-158.5 512.5,-164.5 512.5,-170.5 512.5,-170.5 512.5,-237.5 512.5,-237.5 512.5,-243.5 506.5,-249.5 500.5,-249.5 500.5,-249.5 393.5,-249.5 393.5,-249.5 387.5,-249.5 381.5,-243.5 381.5,-237.5 381.5,-237.5 381.5,-170.5 381.5,-170.5 381.5,-164.5 387.5,-158.5 393.5,-158.5"/>
<text text-anchor="middle" x="447" y="-234.3" font-family="Times,serif" font-size="14.00">Category</text>
<polyline fill="none" stroke="black" points="381.5,-226.5 512.5,-226.5 "/>
<text text-anchor="start" x="389.5" y="-211.3" font-family="Times,serif" font-size="14.00">id :INTEGER</text>
<text text-anchor="start" x="389.5" y="-196.3" font-family="Times,serif" font-size="14.00">name :varchar</text>
<text text-anchor="start" x="389.5" y="-181.3" font-family="Times,serif" font-size="14.00">created_at :datetime</text>
<text text-anchor="start" x="389.5" y="-166.3" font-family="Times,serif" font-size="14.00">updated_at :datetime</text>
</g>
<!-- Category&#45;&gt;Project -->
<g id="edge2" class="edge"><title>Category&#45;&gt;Project</title>
<path fill="none" stroke="#470a1f" d="M419.412,-151.134C415.891,-144.515 412.244,-137.659 408.609,-130.824"/>
<ellipse fill="none" stroke="#470a1f" cx="421.391" cy="-154.855" rx="4.00002" ry="4.00002"/>
<polygon fill="#470a1f" stroke="#470a1f" points="408.367,-130.37 407.644,-119.428 406.019,-125.956 403.671,-121.541 403.671,-121.541 403.671,-121.541 406.019,-125.956 399.698,-123.655 408.367,-130.37 408.367,-130.37"/>
</g>
</g>
</svg>
